<svg width="900" height="158" viewBox="0 0 900 158" fill="none" xmlns="http://www.w3.org/2000/svg">
<path d="M866.761 96.1365C876.646 96.1365 884.659 88.1234 884.659 78.2388C884.659 68.3541 876.646 60.3411 866.761 60.3411C856.876 60.3411 848.863 68.3541 848.863 78.2388C848.863 88.1234 856.876 96.1365 866.761 96.1365Z" fill="white"/>
<path fill-rule="evenodd" clip-rule="evenodd" d="M899.998 2.04565H848.861L848.861 2.04568H849.884V3.06804L899.998 53.182V2.04565ZM848.862 155.455H849.884V154.433L899.998 104.319V155.455H848.861L848.862 155.455Z" fill="white"/>
<path d="M774.203 78.7502C774.203 121.112 808.557 155.455 850.908 155.455V2.04565C808.557 2.04565 774.203 36.3888 774.203 78.7502Z" fill="#DEFFFE"/>
<path d="M710.284 52.6705H762.954C762.954 23.5858 739.368 0 710.284 0C681.199 0 657.613 23.5858 657.613 52.6705C657.613 81.7551 681.199 105.341 710.284 105.341V52.6705Z" fill="white"/>
<path d="M643.295 105.342C643.295 76.5355 619.942 53.183 591.136 53.183C562.329 53.183 538.977 76.5355 538.977 105.342C538.977 134.149 562.329 157.501 591.136 157.501C619.942 157.501 643.295 134.149 643.295 105.342Z" fill="white"/>
<path d="M640.227 2.04565H542.045V42.9547H640.227V2.04565Z" fill="#316BF4"/>
<path d="M141.135 52.1591C141.135 80.9658 164.487 104.318 193.294 104.318C222.101 104.318 245.453 80.9658 245.453 52.1591C245.453 23.3524 222.101 -1.02077e-06 193.294 -2.27995e-06C164.487 -3.53913e-06 141.135 23.3524 141.135 52.1591Z" fill="white"/>
<path d="M144.203 155.456L242.385 155.456L242.385 114.546L144.203 114.546L144.203 155.456Z" fill="#316BF4"/>
<path d="M415.227 2.04565H261.818V155.455H415.227V2.04565Z" fill="white"/>
<path d="M338.523 78.7502L415.227 2.04565H261.818L338.523 78.7502Z" fill="#316BF4"/>
<path d="M338.523 78.75L261.818 155.455H415.227L338.523 78.75Z" fill="#DEFFFE"/>
<path d="M532.84 58.2957C532.84 27.2252 507.66 2.04565 476.59 2.04565V114.546C507.66 114.546 532.84 89.3661 532.84 58.2957Z" fill="#DEFFFE" transform="translate(-0.75, 0)"/>
<path fill-rule="evenodd" clip-rule="evenodd" d="M74.6587 155.455L74.6582 155.455H125.795V104.319L75.6806 154.433V155.455H74.6587ZM75.6806 3.06804L125.795 53.182V2.04565H75.6806V3.06804Z" fill="white"/>
<path d="M476.591 2.04565H435.682V155.455H476.591V2.04565Z" fill="white"/>
<path d="M0 78.7502C0 121.112 34.3432 155.455 76.7046 155.455V2.04565C34.3432 2.04565 0 36.3888 0 78.7502Z" fill="#DEFFFE"/>
<path fill-rule="evenodd" clip-rule="evenodd" d="M710.284 52.6709V104.83H657.613C657.613 133.915 681.199 157.501 710.284 157.501C739.368 157.501 762.954 133.915 762.954 104.83C762.954 78.2451 743.248 56.2542 717.649 52.6709H710.284Z" fill="#DEFFFE" transform="translate(-0.5, -0.5)"/>
</svg>
